<svg width="450" height="150" viewBox="0 0 450 150" fill="none" xmlns="http://www.w3.org/2000/svg">
<path d="M21.3118 106.995L40.2571 80.042L22.7278 55.1396H33.7141L41.6731 67.2979C43.1705 69.609 44.3749 71.5459 45.2864 73.1084C46.7187 70.96 48.037 69.0557 49.2415 67.3955L57.9817 55.1396H68.4797L50.5598 79.5537L69.8469 106.995H59.0559L48.4114 90.8818L45.5793 86.5361L31.9563 106.995H21.3118ZM71.3118 106.995L90.2571 80.042L72.7278 55.1396H83.7141L91.6731 67.2979C93.1705 69.609 94.3749 71.5459 95.2864 73.1084C96.7187 70.96 98.037 69.0557 99.2415 67.3955L107.982 55.1396H118.48L100.56 79.5537L119.847 106.995H109.056L98.4114 90.8818L95.5793 86.5361L81.9563 106.995H71.3118ZM129.271 106.995V61.9756H121.507V55.1396H129.271V49.6221C129.271 46.139 129.58 43.5511 130.198 41.8584C131.045 39.5798 132.526 37.7406 134.642 36.3408C136.79 34.9085 139.785 34.1924 143.626 34.1924C146.1 34.1924 148.835 34.4854 151.829 35.0713L150.511 42.7373C148.688 42.4118 146.963 42.249 145.335 42.249C142.666 42.249 140.778 42.8187 139.671 43.958C138.564 45.0973 138.011 47.2295 138.011 50.3545V55.1396H148.118V61.9756H138.011V106.995H129.271ZM155.052 45.5205V35.4131H163.841V45.5205H155.052ZM155.052 106.995V55.1396H163.841V106.995H155.052ZM172.63 106.995V99.8662L205.638 61.9756C201.894 62.1709 198.59 62.2686 195.726 62.2686H174.583V55.1396H216.966V60.9502L188.89 93.8604L183.47 99.8662C187.409 99.5732 191.103 99.4268 194.554 99.4268H218.529V106.995H172.63ZM227.073 106.995V35.4131H235.863V106.995H227.073ZM249.534 106.995V55.1396H257.396V62.415C259.023 59.876 261.188 57.8415 263.89 56.3115C266.592 54.749 269.668 53.9678 273.118 53.9678C276.96 53.9678 280.101 54.7653 282.542 56.3604C285.016 57.9554 286.758 60.1852 287.767 63.0498C291.868 56.9951 297.207 53.9678 303.782 53.9678C308.926 53.9678 312.881 55.4001 315.648 58.2646C318.415 61.0967 319.798 65.4749 319.798 71.3994V106.995H311.058V74.3291C311.058 70.8135 310.765 68.2907 310.179 66.7607C309.626 65.1982 308.6 63.945 307.103 63.001C305.605 62.057 303.848 61.585 301.829 61.585C298.184 61.585 295.156 62.8057 292.747 65.2471C290.338 67.6559 289.134 71.5296 289.134 76.8682V106.995H280.345V73.3037C280.345 69.3975 279.629 66.4678 278.197 64.5146C276.764 62.5615 274.42 61.585 271.165 61.585C268.691 61.585 266.396 62.236 264.281 63.5381C262.197 64.8402 260.684 66.7445 259.74 69.251C258.795 71.7575 258.323 75.3708 258.323 80.0908V106.995H249.534ZM332.884 45.5205V35.4131H341.673V45.5205H332.884ZM332.884 106.995V55.1396H341.673V106.995H332.884Z" fill="white"/>
<path d="M25.6488 119.969C23.7158 119.969 22.1488 121.536 22.1488 123.469C22.1488 125.402 23.7158 126.969 25.6488 126.969L25.6488 119.969ZM382.113 123.469L382.113 126.969L382.113 126.969L382.113 123.469ZM382.113 41.9999L382.113 45.4999L382.113 45.4999L382.113 41.9999ZM350 41.9999L385 62.2072L385 21.7926L350 41.9999ZM397.317 44.9436L396.011 48.1907L396.011 48.1907L397.317 44.9436ZM25.6488 126.969L382.113 126.969L382.113 119.969L25.6488 119.969L25.6488 126.969ZM382.113 38.4999L381.5 38.4999L381.5 45.4999L382.113 45.4999L382.113 38.4999ZM398.623 41.6966C393.375 39.5851 387.77 38.4999 382.113 38.4999L382.113 45.4999C386.875 45.4999 391.593 46.4133 396.011 48.1907L398.623 41.6966ZM382.113 126.969C430.768 126.969 443.762 59.8567 398.623 41.6966L396.011 48.1907C434.007 63.4771 423.069 119.969 382.113 119.969L382.113 126.969Z" fill="#BFB904"/>
</svg>
